<svg width="20" height="20" viewBox="0 0 20 20" fill="none" xmlns="http://www.w3.org/2000/svg">
<g id="instagram-svgrepo-com (3) 1">
<path id="Vector" d="M13.6724 1.25H6.33628C3.1497 1.25 1.25 3.14875 1.25 6.33375V13.6575C1.25 16.8513 3.1497 18.75 6.33628 18.75H13.6637C16.8503 18.75 18.75 16.8513 18.75 13.6663V6.33375C18.7587 3.14875 16.859 1.25 13.6724 1.25ZM10.0044 13.395C8.13093 13.395 6.60767 11.8725 6.60767 10C6.60767 8.1275 8.13093 6.605 10.0044 6.605C11.8778 6.605 13.4011 8.1275 13.4011 10C13.4011 11.8725 11.8778 13.395 10.0044 13.395ZM15.1869 5.52C15.1432 5.625 15.0819 5.72125 15.0031 5.80875C14.9156 5.8875 14.8193 5.94875 14.7142 5.9925C14.6092 6.03625 14.4954 6.0625 14.3815 6.0625C14.1452 6.0625 13.9263 5.975 13.76 5.80875C13.6812 5.72125 13.6199 5.625 13.5761 5.52C13.5324 5.415 13.5061 5.30125 13.5061 5.1875C13.5061 5.07375 13.5324 4.96 13.5761 4.855C13.6199 4.74125 13.6812 4.65375 13.76 4.56625C13.9613 4.365 14.2677 4.26875 14.5479 4.33C14.6092 4.33875 14.6617 4.35625 14.7142 4.3825C14.7667 4.4 14.8193 4.42625 14.8718 4.46125C14.9156 4.4875 14.9593 4.53125 15.0031 4.56625C15.0819 4.65375 15.1432 4.74125 15.1869 4.855C15.2307 4.96 15.257 5.07375 15.257 5.1875C15.257 5.30125 15.2307 5.415 15.1869 5.52Z" fill="black"/>
</g>
</svg>
