<svg width="20" height="20" viewBox="0 0 20 20" fill="none" xmlns="http://www.w3.org/2000/svg">
<g id="telegram-svgrepo-com (3) 1" clip-path="url(#clip0_46_6653)">
<g id="&#233;&#161;&#181;&#233;&#157;&#162;-1">
<g id="Brand">
<g id="telegram_fill">
<path id="&#232;&#183;&#175;&#229;&#190;&#132;" fill-rule="evenodd" clip-rule="evenodd" d="M16.4814 3.69133C17.388 3.30961 18.3599 4.07621 18.1998 5.04679L16.3091 16.5107C16.1267 17.616 14.9127 18.2503 13.8987 17.6995C13.0501 17.2385 11.7911 16.5291 10.6564 15.7877C10.0898 15.4175 8.35491 14.2303 8.56816 13.3852C8.75049 12.6626 11.6671 9.94771 13.3337 8.33313C13.9884 7.69891 13.6902 7.33251 12.9171 7.91646C10.9991 9.36505 7.91976 11.5675 6.90146 12.1873C6.00301 12.7341 5.53391 12.8275 4.97437 12.7341C3.9526 12.5639 3.00529 12.3002 2.23189 11.9796C1.18658 11.5463 1.2375 10.1098 2.23118 9.69146L16.4814 3.69133Z" fill="black"/>
</g>
</g>
</g>
</g>
<defs>
<clipPath id="clip0_46_6653">
<rect width="20" height="20" fill="white"/>
</clipPath>
</defs>
</svg>
