<svg width="20" height="20" viewBox="0 0 20 20" fill="none" xmlns="http://www.w3.org/2000/svg">
<g id="whatsapp-128-svgrepo-com (2) 1">
<g id="Page-1">
<g id="Dribbble-Light-Preview">
<g id="icons">
<path id="whatsapp-[#128]" fill-rule="evenodd" clip-rule="evenodd" d="M15.0934 13.606C14.8825 14.2029 14.0443 14.6967 13.3758 14.8411C12.9181 14.9383 12.3214 15.0151 10.3106 14.1819C8.05225 13.2462 4.91625 9.91335 4.91625 7.69543C4.91625 6.56634 5.56725 5.25159 6.70563 5.25159C7.25338 5.25159 7.37413 5.26227 7.55438 5.69464C7.76525 6.20405 8.27975 7.45911 8.341 7.58777C8.59388 8.11555 8.08374 8.42452 7.71362 8.88403C7.59549 9.02232 7.46163 9.17188 7.61125 9.4292C7.76 9.68128 8.2745 10.5198 9.0305 11.1929C10.007 12.0629 10.7989 12.3406 11.0824 12.4588C11.2932 12.5463 11.5453 12.5259 11.6993 12.3614C11.8944 12.1505 12.1367 11.8005 12.3835 11.4556C12.5576 11.2088 12.779 11.178 13.0109 11.2655C13.1675 11.3198 15.1581 12.2442 15.2421 12.3922C15.3042 12.4998 15.3043 13.009 15.0934 13.606ZM10.0017 1.25H9.99737C5.17349 1.25 1.25 5.17468 1.25 10C1.25 11.9133 1.86688 13.6884 2.91601 15.1282L1.82575 18.3796L5.18838 17.3051C6.57176 18.2206 8.22287 18.75 10.0017 18.75C14.8256 18.75 18.75 14.8253 18.75 10C18.75 5.17468 14.8256 1.25 10.0017 1.25Z" fill="black"/>
</g>
</g>
</g>
</g>
</svg>
