<svg width="20" height="20" viewBox="0 0 20 20" fill="none" xmlns="http://www.w3.org/2000/svg">
<g id="youtube-svgrepo-com (1) 1">
<path id="Vector" d="M8.20962 12.6124V7.41458L12.7834 10.0138L8.20962 12.6124ZM18.383 5.77836C18.1764 5.01999 17.593 4.43359 16.8514 4.22607L16.8356 4.22258C14.9726 3.98592 12.8179 3.85068 10.631 3.85068C10.4087 3.85068 10.187 3.85185 9.96587 3.85476L9.99971 3.85418C9.81183 3.85185 9.5907 3.8501 9.36839 3.8501C7.18155 3.8501 5.02563 3.98533 2.90939 4.24706L3.16261 4.22141C2.40585 4.43301 1.82238 5.01883 1.61992 5.76203L1.61642 5.77719C1.38303 7.00654 1.25 8.42126 1.25 9.86687C1.25 9.91817 1.25 9.96946 1.25058 10.0202V10.012C1.25058 10.0552 1.25 10.1064 1.25 10.1577C1.25 11.6034 1.38361 13.0175 1.63859 14.3891L1.61642 14.2468C1.82297 15.0052 2.40644 15.5916 3.14803 15.7991L3.16378 15.8026C5.0268 16.0393 7.18155 16.1745 9.36839 16.1745C9.59011 16.1745 9.81183 16.1733 10.0335 16.1704L9.99971 16.171C10.1876 16.1733 10.4093 16.1751 10.631 16.1751C12.8184 16.1751 14.9738 16.0399 17.09 15.7781L16.8368 15.8038C17.5941 15.5928 18.1776 15.0064 18.3807 14.2632L18.3842 14.248C18.617 13.0187 18.75 11.6039 18.75 10.1589C18.75 10.1076 18.75 10.0563 18.7494 10.0056V10.0132C18.7494 9.97005 18.75 9.91875 18.75 9.86745C18.75 8.42184 18.6164 7.00771 18.3614 5.63613L18.383 5.77836Z" fill="black"/>
</g>
</svg>
