<svg width="32" height="32" viewBox="0 0 32 32" fill="none" xmlns="http://www.w3.org/2000/svg">
<g id="eye-svgrepo-com 1">
<path id="Vector" fill-rule="evenodd" clip-rule="evenodd" d="M16 11C13.2386 11 11 13.2386 11 16C11 18.7615 13.2386 21 16 21C18.7615 21 21 18.7615 21 16C21 13.2386 18.7615 11 16 11ZM13 16C13 14.3432 14.3432 13 16 13C17.6568 13 19 14.3432 19 16C19 17.6568 17.6568 19 16 19C14.3432 19 13 17.6568 13 16Z" fill="#FF0000"/>
<path id="Vector_2" fill-rule="evenodd" clip-rule="evenodd" d="M16 4.3335C9.98112 4.3335 5.92701 7.9391 3.57405 10.996L3.53161 11.0511C2.99948 11.7422 2.50937 12.3787 2.17688 13.1314C1.82081 13.9374 1.66663 14.8158 1.66663 16.0002C1.66663 17.1846 1.82081 18.063 2.17688 18.869C2.50937 19.6216 2.99948 20.2582 3.53163 20.9492L3.57405 21.0043C5.92701 24.0612 9.98112 27.6668 16 27.6668C22.0188 27.6668 26.0729 24.0612 28.4258 21.0043L28.4682 20.9492C29.0005 20.2582 29.4905 19.6216 29.823 18.869C30.1792 18.063 30.3333 17.1846 30.3333 16.0002C30.3333 14.8158 30.1792 13.9374 29.823 13.1314C29.4905 12.3787 29.0005 11.7422 28.4682 11.0511L28.4258 10.996C26.0729 7.9391 22.0188 4.3335 16 4.3335ZM5.15892 12.2159C7.33148 9.39339 10.8671 6.3335 16 6.3335C21.1328 6.3335 24.6685 9.39339 26.841 12.2159C27.4258 12.9756 27.7684 13.4296 27.9936 13.9395C28.2042 14.4162 28.3333 14.9987 28.3333 16.0002C28.3333 17.0016 28.2042 17.5842 27.9936 18.0608C27.7684 18.5707 27.4258 19.0247 26.841 19.7844C24.6685 22.607 21.1328 25.6668 16 25.6668C10.8671 25.6668 7.33148 22.607 5.15892 19.7844C4.57415 19.0247 4.23161 18.5707 4.00631 18.0608C3.79575 17.5842 3.66663 17.0016 3.66663 16.0002C3.66663 14.9987 3.79575 14.4162 4.00631 13.9395C4.23161 13.4296 4.57413 12.9756 5.15892 12.2159Z" fill="#FF0000"/>
</g>
</svg>
