<svg width="32" height="32" viewBox="0 0 32 32" fill="none" xmlns="http://www.w3.org/2000/svg">
<g id="point-on-map-svgrepo-com 1">
<path id="Vector" fill-rule="evenodd" clip-rule="evenodd" d="M7 10.2669C7 5.46937 11.0783 1.6665 16 1.6665C20.8107 1.6665 24.8155 5.29968 24.9939 9.94368L25.6308 10.156C26.2484 10.3618 26.7896 10.5422 27.2189 10.7419C27.6831 10.9579 28.1085 11.236 28.4337 11.6872C28.7589 12.1384 28.8883 12.63 28.9464 13.1386C29.0001 13.6092 29 14.1796 29 14.8305V22.4948C29 23.3073 29.0001 24.0005 28.9371 24.5566C28.8707 25.1416 28.7224 25.7165 28.3205 26.2069C28.0899 26.4885 27.8097 26.7258 27.494 26.9072C26.9441 27.2229 26.3527 27.2746 25.7648 27.2438C25.2059 27.2146 24.522 27.1006 23.7205 26.967L23.6651 26.9578C21.9413 26.6705 21.2468 26.562 20.5699 26.6186C20.3223 26.6393 20.0761 26.6764 19.8333 26.7293C19.1699 26.8742 18.5317 27.1853 16.9547 27.9738C16.8999 28.0013 16.8456 28.0284 16.792 28.0552C14.9485 28.9773 13.8127 29.5454 12.5871 29.7229C12.2185 29.7762 11.8464 29.8028 11.4739 29.802C10.2356 29.7997 9.03994 29.4009 7.10048 28.7541C7.04437 28.7354 6.98766 28.7165 6.9303 28.6973L6.41887 28.5269L6.36912 28.5102C5.75164 28.3045 5.21044 28.1241 4.78107 27.9244C4.31688 27.7085 3.89148 27.4304 3.56628 26.9792C3.24107 26.528 3.11172 26.0364 3.05366 25.5277C2.99994 25.0572 2.99996 24.4868 3 23.8358V17.1428C2.99996 16.0946 2.99992 15.2112 3.08972 14.5192C3.18346 13.7969 3.39536 13.0906 3.97683 12.5596C4.14776 12.4035 4.33618 12.2676 4.53834 12.1548C5.22604 11.7712 5.96302 11.7935 6.67788 11.9329C6.8229 11.9612 6.97479 11.9961 7.13359 12.0366C7.04548 11.4421 7 10.8495 7 10.2669ZM7.66492 14.2789C7.0943 14.0949 6.65632 13.9665 6.29484 13.896C5.76799 13.7932 5.59528 13.8554 5.51279 13.9014C5.4454 13.939 5.38259 13.9842 5.32562 14.0364C5.25587 14.1 5.14218 14.2442 5.0731 14.7765C5.00202 15.3242 5 16.0765 5 17.2105V23.7834C5 24.5022 5.00152 24.9573 5.04074 25.3009C5.07706 25.6189 5.13646 25.7372 5.18876 25.8097C5.24107 25.8822 5.33444 25.976 5.62466 26.111C5.93819 26.2569 6.36946 26.4022 7.05132 26.6296L7.56274 26.8C9.72751 27.5216 10.6012 27.8004 11.4777 27.802C11.753 27.8025 12.028 27.783 12.3005 27.7436C13.1678 27.618 14.0012 27.2145 16.0603 26.185C16.102 26.1641 16.1432 26.1436 16.184 26.1232C17.5983 25.4158 18.4693 24.9801 19.4067 24.7754C19.7352 24.7037 20.068 24.6536 20.4031 24.6256C21.3591 24.5456 22.3125 24.7046 23.8593 24.9626C23.9037 24.97 23.9485 24.9774 23.9939 24.985C24.8663 25.1304 25.4372 25.224 25.8692 25.2466C26.2851 25.2684 26.428 25.2129 26.498 25.1728C26.6032 25.1124 26.6967 25.0332 26.7735 24.9393C26.8247 24.8769 26.9028 24.745 26.9497 24.3313C26.9985 23.9014 27 23.3229 27 22.4385V14.8829C27 14.1641 26.9985 13.709 26.9593 13.3654C26.9229 13.0474 26.8636 12.9292 26.8112 12.8566C26.7589 12.7841 26.6656 12.6903 26.3753 12.5553C26.0619 12.4095 25.6305 12.2641 24.9487 12.0368L24.8703 12.0107C24.6167 13.7458 23.9995 15.4976 23.0897 17.061C21.8731 19.1518 20.0929 20.973 17.8628 21.9458C16.6792 22.4622 15.3208 22.4622 14.1372 21.9458C11.907 20.973 10.1269 19.1518 8.91031 17.061C8.39828 16.1812 7.97894 15.2416 7.66492 14.2789ZM16 3.6665C12.0851 3.6665 9 6.66928 9 10.2669C9 12.1568 9.58325 14.2409 10.639 16.0552C11.6949 17.87 13.1834 19.3477 14.9369 20.1128C15.6107 20.4066 16.3893 20.4066 17.0631 20.1128C18.8167 19.3477 20.3051 17.87 21.3611 16.0552C22.4168 14.2409 23 12.1568 23 10.2669C23 6.66928 19.9149 3.6665 16 3.6665ZM16 8.99984C15.0795 8.99984 14.3333 9.74602 14.3333 10.6665C14.3333 11.587 15.0795 12.3332 16 12.3332C16.9205 12.3332 17.6667 11.587 17.6667 10.6665C17.6667 9.74602 16.9205 8.99984 16 8.99984ZM12.3333 10.6665C12.3333 8.64146 13.9749 6.99984 16 6.99984C18.0251 6.99984 19.6667 8.64146 19.6667 10.6665C19.6667 12.6915 18.0251 14.3332 16 14.3332C13.9749 14.3332 12.3333 12.6915 12.3333 10.6665Z" fill="#FF0000"/>
</g>
</svg>
