<svg width="16" height="16" viewBox="0 0 16 16" fill="none" xmlns="http://www.w3.org/2000/svg">
<g id="phone-svgrepo-com (5) 1">
<path id="Vector" d="M14.2558 11.8346C14.4115 11.9909 14.5283 12.1817 14.5966 12.3915C14.6649 12.6013 14.6829 12.8243 14.649 13.0424C14.6151 13.2604 14.5303 13.4675 14.4016 13.6467C14.2728 13.8259 14.1036 13.9722 13.9078 14.0739C12.7885 14.6721 11.4844 14.825 10.2571 14.5019C6.99975 13.6819 2.31775 8.99989 1.49775 5.74256C1.17463 4.51526 1.32752 3.21118 1.92575 2.09189C2.02742 1.89603 2.17378 1.72686 2.35298 1.59808C2.53219 1.4693 2.73921 1.38454 2.95727 1.35065C3.17533 1.31677 3.3983 1.33471 3.60814 1.40303C3.81798 1.47134 4.00877 1.58812 4.16508 1.74389L5.55509 3.13323C5.75554 3.33167 5.89117 3.58617 5.94413 3.86321C5.99709 4.14026 5.96488 4.42685 5.85175 4.68523C5.72795 4.97512 5.55217 5.23992 5.33309 5.46656C3.74375 7.05589 8.94442 12.2566 10.5331 10.6666C10.7598 10.4467 11.0248 10.2702 11.3151 10.1459C11.5734 10.0326 11.8601 10.0003 12.1371 10.0532C12.4142 10.1062 12.6687 10.2419 12.8671 10.4426L14.2558 11.8346Z" fill="white"/>
</g>
</svg>
