<svg width="130" height="108" viewBox="0 0 130 108" fill="none" xmlns="http://www.w3.org/2000/svg">
<g id="quote-close-editor-svgrepo-com 1" clip-path="url(#clip0_644_5622)">
<g id="Icons1">
<path id="quote-2" d="M78.2003 108V86.3157C85.0876 85.9375 90.3026 84.6838 93.8399 82.5576C97.3799 80.434 99.8666 76.9838 101.303 72.2125C102.736 67.4412 103.455 60.6139 103.455 51.7305H78.2003V0H130V49.1801C130 69.4946 125.624 84.3785 116.872 93.8266C108.117 103.275 95.2271 108 78.2003 108ZM0 108V86.3157C6.88726 85.9375 12.0995 84.7325 15.6395 82.7008C19.1795 80.669 21.7395 77.2189 23.3168 72.353C24.894 67.4872 25.684 60.6139 25.684 51.7305H0V0H52.0847V49.1801C52.0847 69.4946 47.733 84.3785 39.0296 93.8266C30.3235 103.275 17.3145 108 0 108Z" fill="#454545"/>
</g>
</g>
<defs>
<clipPath id="clip0_644_5622">
<rect width="130" height="108" fill="white"/>
</clipPath>
</defs>
</svg>
