<svg width="32" height="32" viewBox="0 0 32 32" fill="none" xmlns="http://www.w3.org/2000/svg">
<g id="stars-1-svgrepo-com 1">
<path id="Vector" fill-rule="evenodd" clip-rule="evenodd" d="M16.563 4.09546C16.0641 4.56919 15.4589 5.33438 14.5612 6.47567L14.1074 7.05257C14.0776 7.09058 14.0478 7.12843 14.0184 7.16609C13.6113 7.68565 13.2356 8.16514 12.7078 8.44677C12.1712 8.73305 11.57 8.76635 10.9369 8.80142C10.8911 8.80397 10.8451 8.80651 10.799 8.80917L10.0958 8.84961C8.70137 8.92979 7.77638 8.98594 7.13163 9.12523C6.51038 9.25945 6.41717 9.41567 6.37733 9.49589C6.32991 9.59137 6.26545 9.79315 6.52546 10.4257C6.79025 11.0699 7.28193 11.906 8.01633 13.1474L8.38774 13.7752C8.41106 13.8146 8.43427 13.8537 8.45735 13.8926C8.79682 14.4642 9.10237 14.9789 9.18275 15.5784C9.26249 16.173 9.1075 16.7556 8.93286 17.412C8.92098 17.4566 8.90902 17.5016 8.89702 17.5469L8.70645 18.2677C8.33001 19.6913 8.07762 20.655 7.99278 21.3616C7.90791 22.0682 8.03099 22.2268 8.08014 22.2797L8.08238 22.2822C8.11485 22.3177 8.22314 22.4364 8.84527 22.3645C9.44275 22.2956 10.2469 22.0841 11.4166 21.7618C11.0368 21.4456 10.7075 21.1528 10.451 20.8773C9.99767 20.3905 9.56777 19.7452 9.68654 18.9116C9.80619 18.0717 10.4053 17.5776 10.9808 17.2464C11.5321 16.9292 12.2989 16.6289 13.1814 16.2834L13.743 16.0634C14.0261 15.9525 14.1837 15.89 14.2978 15.8344C14.3626 15.8028 14.3885 15.7849 14.3961 15.7788C14.4021 15.771 14.4194 15.745 14.4496 15.6805C14.5032 15.5658 14.5629 15.4077 14.6689 15.1233L14.8793 14.5588C15.2096 13.6725 15.4966 12.9018 15.8048 12.3459C16.1269 11.7645 16.6112 11.1594 17.448 11.0252C18.2781 10.8921 18.931 11.3074 19.4276 11.7511C19.9058 12.1786 20.4382 12.8156 21.0538 13.5522L21.4433 14.0184C21.6401 14.2537 21.7516 14.386 21.8426 14.479C21.8834 14.5206 21.9084 14.542 21.9222 14.5528C21.9288 14.5578 21.9346 14.5617 21.9346 14.5617L21.9381 14.5637L21.9416 14.5653C21.9416 14.5653 21.948 14.5676 21.9557 14.5697C21.9722 14.5742 22.0036 14.5814 22.0608 14.589C22.1888 14.6062 22.36 14.6162 22.665 14.6328L23.2693 14.6654C23.5549 14.6809 23.829 14.6957 24.0898 14.7124C24.7158 14.1613 25.1332 13.7561 25.3938 13.4157C25.6729 13.0511 25.6758 12.8863 25.663 12.7906C25.6502 12.6956 25.6074 12.5135 25.062 12.18C24.4962 11.8342 23.639 11.4743 22.3468 10.9366L21.6949 10.6653C21.6524 10.6476 21.6101 10.6301 21.5678 10.6126C20.9796 10.3692 20.4241 10.1394 20.0108 9.69325C19.6045 9.25466 19.4041 8.67997 19.1853 8.05274C19.1697 8.00769 19.1538 7.96237 19.1378 7.91681L18.8938 7.22105C18.4112 5.84509 18.084 4.91991 17.7636 4.30553C17.4489 3.70222 17.2802 3.67549 17.2485 3.67046L17.2465 3.67014L17.2444 3.66974C17.2146 3.66414 17.0501 3.63306 16.563 4.09546ZM26.5224 15.1648C26.6937 14.984 26.8477 14.8066 26.9818 14.6314C27.4396 14.0336 27.755 13.3432 27.6453 12.5248C27.5142 11.5481 26.8554 10.9323 26.1052 10.4736C25.3906 10.0368 24.3865 9.61902 23.1933 9.12257L22.4633 8.81879C21.6664 8.48713 21.5565 8.41882 21.478 8.33402C21.3918 8.24117 21.3228 8.10335 21.0252 7.25485L20.7541 6.48207C20.3056 5.20301 19.9322 4.13871 19.5369 3.38067C19.1352 2.61046 18.5645 1.86585 17.5824 1.69854C16.5972 1.53073 15.8146 2.04814 15.186 2.64509C14.5684 3.23147 13.8737 4.11463 13.0401 5.17447L12.5355 5.81606C11.9811 6.52083 11.8737 6.62487 11.7663 6.68222C11.6681 6.73459 11.5454 6.76294 10.6842 6.81246L9.98095 6.8529C9.9525 6.85454 9.92415 6.85617 9.89591 6.85779C8.60943 6.9317 7.52558 6.99398 6.7093 7.17033C5.85161 7.35562 5.02558 7.72118 4.58602 8.60639C4.15403 9.47634 4.3377 10.3639 4.67563 11.1861C5.00231 11.9808 5.57114 12.9422 6.25419 14.0968L6.66639 14.7936C7.11577 15.5532 7.18107 15.6993 7.20049 15.8441C7.22059 15.9941 7.19383 16.1645 6.96347 17.0357L6.75278 17.8325C6.40154 19.1606 6.11059 20.2609 6.00705 21.123C5.90157 22.0014 5.95025 22.9236 6.61299 23.639C7.29514 24.3753 8.21329 24.4508 9.07458 24.3513C9.90167 24.2558 10.954 23.9649 12.2038 23.6194L12.375 23.5721L13.1718 23.1849C13.1924 23.2032 13.2113 23.2202 13.2288 23.2366C13.2713 23.2766 13.293 23.301 13.3041 23.3146C13.3093 23.321 13.3132 23.3268 13.3132 23.3268L13.3151 23.3298L13.3164 23.3329C13.3164 23.3329 13.3187 23.3388 13.321 23.3464C13.3257 23.3624 13.3333 23.3933 13.3421 23.4498C13.3616 23.5769 13.3746 23.7472 13.3968 24.0512L13.4405 24.6538C13.5094 25.6036 13.5693 26.427 13.7086 27.0509C13.8542 27.7029 14.1448 28.4149 14.8945 28.7914C15.6469 29.1693 16.391 28.9732 16.9982 28.6961C17.5774 28.4317 18.2664 27.983 19.0589 27.4669L19.5633 27.1385C19.8174 26.973 19.9596 26.8814 20.071 26.821C20.1206 26.7942 20.1489 26.7821 20.1633 26.7768C20.1702 26.7741 20.175 26.7728 20.175 26.7728L20.1764 26.7725L20.1781 26.7724C20.1781 26.7724 20.1838 26.7721 20.1917 26.7724C20.2082 26.773 20.2401 26.7757 20.297 26.7858C20.4244 26.8084 20.5913 26.851 20.8876 26.9281L21.475 27.081C22.4013 27.3221 23.2034 27.5308 23.8392 27.5998C24.4986 27.6714 25.276 27.6292 25.8698 27.0258C26.4645 26.4218 26.493 25.6434 26.4092 24.9857C26.3284 24.3524 26.1044 23.5556 25.8461 22.6364L25.6821 22.0529C25.5994 21.7586 25.5538 21.5933 25.5289 21.4669C25.5178 21.4106 25.5146 21.3792 25.5137 21.363C25.5132 21.3554 25.5133 21.3502 25.5133 21.3502L25.5136 21.3485C25.5136 21.3485 25.5148 21.344 25.5172 21.3373C25.5222 21.323 25.5336 21.2949 25.5596 21.245C25.618 21.1329 25.7072 20.9897 25.8685 20.733L26.1886 20.2237C26.6913 19.4241 27.1286 18.7285 27.3832 18.1457C27.65 17.5346 27.834 16.7862 27.4404 16.0402C27.2168 15.6165 26.8865 15.3448 26.5224 15.1648ZM17.7358 12.999C17.7358 12.999 17.7404 12.998 17.7513 13.0012C17.7416 13.0015 17.7358 12.999 17.7358 12.999ZM17.7681 13.0072C17.815 13.0262 17.9166 13.0831 18.0949 13.2424C18.4506 13.5604 18.8893 14.0812 19.5684 14.8937L19.9088 15.3009C19.9329 15.3298 19.957 15.3589 19.9814 15.3882C20.2786 15.7458 20.5957 16.1277 21.0406 16.351C21.4864 16.5749 21.9817 16.6002 22.444 16.624C22.4818 16.6258 22.5196 16.6278 22.5569 16.6298L23.0844 16.6584C24.137 16.7153 24.8125 16.7545 25.2776 16.849C25.4994 16.8942 25.6084 16.9405 25.657 16.9686C25.6606 16.9706 25.6638 16.9726 25.6665 16.9744L25.6662 16.9792C25.662 17.0301 25.6393 17.1414 25.5502 17.3452C25.3634 17.7732 25.0102 18.3401 24.4537 19.2256L24.1752 19.6686C24.1553 19.7002 24.1352 19.7321 24.1149 19.7642C23.8704 20.1504 23.6041 20.5713 23.5334 21.067C23.463 21.5606 23.5994 22.0404 23.7256 22.484C23.7361 22.5209 23.7465 22.5576 23.7568 22.5938L23.8997 23.1026C24.185 24.1184 24.3654 24.7705 24.4252 25.2389C24.4525 25.4522 24.4456 25.5636 24.4364 25.6156C24.3845 25.6258 24.2721 25.6352 24.0552 25.6116C23.584 25.5604 22.9266 25.3921 21.9037 25.126L21.3912 24.9926C21.3546 24.983 21.3177 24.9734 21.2806 24.9636C20.8333 24.8458 20.3516 24.7189 19.8597 24.7977C19.3654 24.8769 18.9494 25.1497 18.5664 25.4008C18.5346 25.4216 18.5032 25.4421 18.472 25.4625L18.0329 25.7484C17.1558 26.3196 16.5937 26.6822 16.1678 26.8766C15.9649 26.9692 15.8532 26.9941 15.8012 26.9993C15.7981 26.9996 15.793 27 15.793 27C15.7912 26.9972 15.789 26.9938 15.7865 26.9898C15.7578 26.9424 15.7097 26.8352 15.6605 26.615C15.5574 26.1536 15.506 25.481 15.4297 24.4318L15.3914 23.9062C15.3888 23.869 15.3862 23.8314 15.3836 23.7937C15.3514 23.3332 15.317 22.8382 15.084 22.3965C14.8517 21.9565 14.4632 21.6469 14.0996 21.3572C14.0697 21.3334 14.0401 21.3097 14.0106 21.2861L13.5964 20.9541C12.7697 20.2914 12.2397 19.8633 11.9146 19.5142C11.7556 19.3436 11.696 19.2444 11.675 19.197C11.7089 19.1594 11.7915 19.0873 11.9782 18.98C12.3836 18.7468 13.0069 18.4997 13.9836 18.1172L14.4725 17.9257C14.5074 17.912 14.5429 17.8982 14.5785 17.8844C15.0052 17.7188 15.4708 17.5382 15.8216 17.1818C16.1725 16.8252 16.3454 16.3569 16.5036 15.9282C16.5168 15.8924 16.53 15.8569 16.543 15.8217L16.7261 15.3305C17.0917 14.3493 17.3278 13.7234 17.5541 13.3152C17.6601 13.1239 17.7316 13.0406 17.7681 13.0072ZM11.6649 19.1628C11.6649 19.1628 11.6676 19.1685 11.6676 19.1782C11.664 19.1673 11.6649 19.1628 11.6649 19.1628ZM11.6622 19.2124C11.6589 19.2226 11.654 19.2277 11.654 19.2277C11.654 19.2277 11.6546 19.2226 11.6622 19.2124ZM24.4242 25.6544C24.4242 25.6544 24.4254 25.6477 24.431 25.6392C24.4277 25.6508 24.4242 25.6544 24.4242 25.6544ZM24.46 25.6097C24.4682 25.6038 24.4748 25.6026 24.4748 25.6026C24.4748 25.6026 24.4713 25.6061 24.46 25.6097ZM17.7816 12.9959C17.7918 12.9881 17.7969 12.9874 17.7969 12.9874C17.7969 12.9874 17.7918 12.9924 17.7816 12.9959Z" fill="#FF0000"/>
</g>
</svg>
