<svg width="32" height="32" viewBox="0 0 32 32" fill="none" xmlns="http://www.w3.org/2000/svg">
<g id="wallet-money-svgrepo-com 1">
<path id="Vector" fill-rule="evenodd" clip-rule="evenodd" d="M27.898 15.6668C27.8709 15.6665 27.8355 15.6665 27.7777 15.6665H24.3077C22.4099 15.6665 21 17.0781 21 18.6665C21 20.2549 22.4099 21.6665 24.3077 21.6665H27.7777C27.8355 21.6665 27.8709 21.6665 27.898 21.6662C27.9236 21.666 27.9307 21.6654 27.9307 21.6654C28.2053 21.6488 28.3236 21.4633 28.3327 21.3517C28.3327 21.3517 28.3329 21.3434 28.3331 21.3313C28.3333 21.3076 28.3333 21.2761 28.3333 21.2221V16.1109C28.3333 16.081 28.3333 16.0581 28.3333 16.0394C28.3332 16.0245 28.3332 16.0122 28.3331 16.0017C28.3329 15.9897 28.3327 15.9813 28.3327 15.9813C28.3236 15.8697 28.2053 15.6842 27.9305 15.6676C27.9305 15.6676 27.924 15.667 27.898 15.6668ZM27.7999 13.6665C27.8884 13.6665 27.9737 13.6664 28.0521 13.6712C29.2139 13.742 30.2413 14.6182 30.3277 15.8422C30.3335 15.9225 30.3333 16.009 30.3333 16.0892C30.3333 16.0965 30.3333 16.1037 30.3333 16.1109V21.2221C30.3333 21.2293 30.3333 21.2365 30.3333 21.2438C30.3333 21.324 30.3335 21.4105 30.3277 21.4908C30.2413 22.7148 29.2139 23.591 28.0521 23.6618C27.9737 23.6666 27.8884 23.6665 27.7999 23.6665C27.7925 23.6665 27.7852 23.6665 27.7777 23.6665H24.3077C21.4475 23.6665 19 21.4964 19 18.6665C19 15.8366 21.4475 13.6665 24.3077 13.6665H27.7777C27.7852 13.6665 27.7925 13.6665 27.7999 13.6665Z" fill="#FF0000"/>
<path id="Vector_2" d="M25.3333 18.6668C25.3333 19.4032 24.7364 20.0002 24 20.0002C23.2636 20.0002 22.6666 19.4032 22.6666 18.6668C22.6666 17.9304 23.2636 17.3335 24 17.3335C24.7364 17.3335 25.3333 17.9304 25.3333 18.6668Z" fill="#FF0000"/>
<path id="Vector_3" fill-rule="evenodd" clip-rule="evenodd" d="M27.7998 13.6667C27.8884 13.6667 27.9737 13.6665 28.0521 13.6713C28.3526 13.6896 28.6442 13.7619 28.9129 13.8801C28.7702 11.7382 28.3774 10.0875 27.145 8.85499C26.1472 7.85717 24.8818 7.41435 23.3186 7.20417L23.2622 7.19672C23.2482 7.18636 23.234 7.17631 23.2193 7.16656L18.2386 3.86408C16.501 2.71197 14.1656 2.71197 12.428 3.86408L7.44735 7.16656C7.43267 7.17631 7.41832 7.18636 7.40432 7.19672L7.34793 7.20417C5.78471 7.41435 4.51944 7.85717 3.52161 8.85499C2.5238 9.85281 2.08097 11.1181 1.87081 12.6813C1.66659 14.2003 1.6666 16.1411 1.66663 18.5915V18.7419C1.6666 21.1923 1.66659 23.1331 1.87081 24.652C2.08097 26.2152 2.5238 27.4805 3.52161 28.4784C4.51944 29.4761 5.78471 29.9189 7.34793 30.1292C8.86688 30.3333 10.8077 30.3333 13.2581 30.3333H17.4085C19.8589 30.3333 21.7997 30.3333 23.3186 30.1292C24.8818 29.9189 26.1472 29.4761 27.145 28.4784C28.3774 27.2459 28.7702 25.5952 28.9129 23.4532C28.6442 23.5715 28.3526 23.6437 28.0521 23.662C27.9737 23.6668 27.8884 23.6667 27.7998 23.6667H27.7777H26.8905C26.7388 25.4553 26.3954 26.3995 25.7308 27.0641C25.1665 27.6284 24.3936 27.9667 23.0522 28.1469C21.682 28.3312 19.8757 28.3333 17.3333 28.3333H13.3333C10.7909 28.3333 8.98464 28.3312 7.61443 28.1469C6.27297 27.9667 5.50011 27.6284 4.93583 27.0641C4.37155 26.4999 4.03332 25.7269 3.85297 24.3856C3.66875 23.0153 3.66663 21.2091 3.66663 18.6667C3.66663 16.1243 3.66875 14.318 3.85297 12.9478C4.03332 11.6063 4.37155 10.8335 4.93583 10.2692C5.50011 9.70492 6.27297 9.36669 7.61443 9.18635C8.98464 9.00212 10.7909 9 13.3333 9H17.3333C19.8757 9 21.682 9.00212 23.0522 9.18635C24.3936 9.36669 25.1665 9.70492 25.7308 10.2692C26.3954 10.9339 26.7388 11.8781 26.8905 13.6667H27.7777H27.7998ZM13.2581 7H17.4085C18.0972 6.99999 18.7456 6.99999 19.3557 7.00452L17.1334 5.53095C16.0657 4.82301 14.6009 4.82301 13.5333 5.53095L11.3109 7.00452C11.921 6.99999 12.5694 6.99999 13.2581 7Z" fill="#FF0000"/>
<path id="Vector_4" d="M8 12.3335C7.44772 12.3335 7 12.7812 7 13.3335C7 13.8858 7.44772 14.3335 8 14.3335H13.3333C13.8856 14.3335 14.3333 13.8858 14.3333 13.3335C14.3333 12.7812 13.8856 12.3335 13.3333 12.3335H8Z" fill="#FF0000"/>
<path id="Vector_5" fill-rule="evenodd" clip-rule="evenodd" d="M25.3333 18.6668C25.3333 19.4032 24.7364 20.0002 24 20.0002C23.2636 20.0002 22.6666 19.4032 22.6666 18.6668C22.6666 17.9304 23.2636 17.3335 24 17.3335C24.7364 17.3335 25.3333 17.9304 25.3333 18.6668Z" fill="#FF0000"/>
</g>
</svg>
